# xmcd
# Track frame offsets:
# 150
# 16262
# 39987
# 53583
# 69721
# 82599
# 107509
# 123795
# 135458
#
# Disc length: 2122 seconds
# Revision: 0
# Processed by: cddbd v1.5.2PL0 Copyright (c) Steve Scherf et al.
# Submitted via: VisiTrax 2.10.0.248 - For more info visit www.synapsa.com
#
DISCID=5f084809
DTITLE=Witherspoon, Jimmy - Kansas City
DYEAR=1900
DGENRE=Blues
TTITLE0=Kansas City
TTITLE1=Ain't Nobody's Business
TTITLE2=Gee Baby Ain't I Been Good to You
TTITLE3=Nobody Knows You
TTITLE4=Goin' to Chicago
TTITLE5=C.C. Rider
TTITLE6=Sweet Lotus Blossom
TTITLE7=Trouble in Mind
TTITLE8=Roll 'Em Pete
EXTD=
EXTT0=
EXTT1=
EXTT2=
EXTT3=
EXTT4=
EXTT5=
EXTT6=
EXTT7=
EXTT8=
PLAYORDER=
